PathFileType	4	(X/Y/Z)	5_coords_data.trc
DataRate	CameraRate	NumFrames	NumMarkers	Units	OrigDataRate	OrigDataStartFrame	OrigNumFrames
30.0	30.0	6	21	m	30.0	39	68
Frame#	Time	THUMB_TIP	THUMB_IP	THUMB_MCP	THUMB_CMC	INDEX_TIP	INDEX_DIP	INDEX_PIP	INDEX_MCP	MIDDLE_TIP	MIDDLE_DIP	MIDDLE_PIP	MIDDLE_MCP	RING_TIP	RING_DIP	RING_PIP	RING_MCP	PINKY_TIP	PINKY_DIP	PINKY_PIP	PINKY_MCP	WRIST
X1	Y1	Z1	X2	Y2	Z2	X3	Y3	Z3	X4	Y4	Z4	X5	Y5	Z5	X6	Y6	Z6	X7	Y7	Z7	X8	Y8	Z8	X9	Y9	Z9	X10	Y10	Z10	X11	Y11	Z11	X12	Y12	Z12	X13	Y13	Z13	X14	Y14	Z14	X15	Y15	Z15	X16	Y16	Z16	X17	Y17	Z17	X18	Y18	Z18	X19	Y19	Z19	X20	Y20	Z20	X21	Y21	Z21
37	1.2666666666666608	0.53947143301845	-0.017363380282172214	-0.11205947381023697	0.5203164674095075	-0.017072697822804184	-0.12474816153702924	0.49060155665405525	-0.010636609306232891	-0.11808326518356885	0.4733371598054193	-0.015040834116142099	-0.07718786929018508	0.5712321915395846	0.024663689490625806	-0.15247558463241778	0.5575845071056544	0.027534808822901602	-0.14092147785726233	0.5393899074911929	0.032023089776371916	-0.12416374197343387	0.5097646506522352	0.0333286358762227	-0.0935978164908485	0.49233862341629997	-0.017838449026943426	-0.0997681779420093	0.509184384402469	-0.013057215931798316	-0.10438988183632715	0.5345547753887634	0.0008257611893764949	-0.10799761761594061	0.5202138380112217	0.028927116865489544	-0.07636220636054485	0.5089551234441541	-0.024419901250219533	-0.09204341106916758	0.5245709435397773	-0.01622365619584154	-0.09578075367451092	0.5463148351771843	-0.00409908940740733	-0.09516590763401837	0.5304149382586826	0.017116629003555706	-0.06464038709320279	0.5976644814761884	0.014238130223994672	-0.09266652497651878	0.582798659771548	0.011326698862620499	-0.08469589686614706	0.5639582248934722	0.007616243327575267	-0.07620575244290895	0.5323035025503986	-0.0014916330146614865	-0.06151192404737374	0.46228308100186094	-0.023011742144276814	-0.051989820119430985
38	1.299999999999994	0.5404485334845246	-0.014825052624182211	-0.11172947702589427	0.5210370271999809	-0.01492888483501087	-0.12402511213096795	0.49105340191879787	-0.009482374008498828	-0.11768967727499417	0.4736346463671313	-0.014756310294946173	-0.07696299620376298	0.5716373232521008	0.025875073869444543	-0.1500953567951235	0.5579198992067507	0.029051828032889637	-0.13870498759368483	0.5395120793646189	0.03380142251665619	-0.12225496163931643	0.5090142771205223	0.0347070631014863	-0.09254469460229553	0.49407854474634977	-0.01789128017473196	-0.10029218720937028	0.5108492206357024	-0.01227041989748101	-0.104184533540044	0.535537674433023	0.0030221685805409404	-0.1066394340959605	0.5195285051305587	0.030266749279798444	-0.07505482959049485	0.51069076197257	-0.024076154340575195	-0.09200009900828388	0.5261645102653729	-0.015252915569578418	-0.09477743070632678	0.5472485751711224	-0.0021087593612676425	-0.09308233672023898	0.5297600478768361	0.018646214303133624	-0.06311396480471723	0.5981040563934689	0.015016565460710507	-0.08972891622757022	0.5831553354971822	0.012507684902768545	-0.0817764787452066	0.5641695443451417	0.00908830760201984	-0.07349036915105912	0.5320684266342952	-0.00010362457478074738	-0.05985548464214308	0.4622830810018609	-0.023011742144276814	-0.051989820119430985
39	1.3333333333333275	0.5417643014402699	-0.011138683398920657	-0.11070385524616368	0.5221726824695827	-0.011904582446162326	-0.1226864202786116	0.4918242328545895	-0.007907250516437925	-0.11704612388481908	0.4741391692057287	-0.01442998417684449	-0.07661615394504359	0.5725615357811829	0.028000404544755608	-0.14634398356471826	0.5585927313598648	0.031521283860510896	-0.13536783160317686	0.5396653079705	0.036463166063683494	-0.11957731935278743	0.5078210385633428	0.03649394402755346	-0.09130051520802354	0.49761246765373557	-0.01917025698072017	-0.10056196421740002	0.5138183735407131	-0.011627629676001616	-0.10347355960902667	0.5369121062433477	0.006122826005501292	-0.10447873768194148	0.5182221325402248	0.03228432815634319	-0.07345602649822855	0.5139094296262585	-0.02371231392532991	-0.09133883839671177	0.5287918179946554	-0.013675733949553237	-0.09300664499282732	0.5485621399048477	0.0011711423332982918	-0.09002593782688975	0.5284852930829091	0.021099952535766686	-0.061138508387730314	0.5983552233419441	0.017729616380995572	-0.08487208798829785	0.5832084972984178	0.015593395217962547	-0.07719007983255038	0.5639716641468533	0.012278567402027596	-0.06945909116035781	0.5314741971122745	0.0022805867221449283	-0.05742420563281039	0.46228308100186094	-0.023011742144277036	-0.051989820119430985
40	1.3666666666666607	0.5433931261135831	-0.006627842212162172	-0.1091173187307963	0.5236885610952255	-0.008315210048586597	-0.12081701561669556	0.4929870687774842	-0.006241567609654997	-0.11613317355070527	0.47489383099029053	-0.014126204206134974	-0.07612870814848399	0.5740534370557311	0.031137764030635284	-0.14128165803580697	0.5596266950322484	0.03492534187431573	-0.13100920123784782	0.5398882243801049	0.03987895154239007	-0.11624897222299746	0.506416511062002	0.03839192099786126	-0.08996077636039809	0.5032087902920124	-0.02033628076712013	-0.09981159685535973	0.5183138773371609	-0.010542222397963874	-0.10178966814326651	0.5388397645889837	0.010146076905821033	-0.101486725174251	0.5163744048189314	0.034723594302683236	-0.07169744572662004	0.5185150065108023	-0.02265021413678503	-0.0897636275966896	0.5323042611576712	-0.011054476587786466	-0.09039237792754468	0.5500450014075372	0.005890227925726688	-0.08611182850760898	0.5265601541826509	0.024256956580887445	-0.05880164609643752	0.5980560436735254	0.022753259294238326	-0.0780641711105732	0.582612453227815	0.020660570961439362	-0.07098489362717647	0.5630802343224082	0.01702962400106045	-0.06419367372187326	0.5303459549022834	0.005606015941129305	-0.054251260496791597	0.4622830810018609	-0.023011742144277036	-0.051989820119430985
41	1.3999999999999937	0.5452086983450275	-0.0015426651847907369	-0.10699739023566822	0.5254865841680374	-0.004431687960491093	-0.11842943991152459	0.49455888476927534	-0.004607841297654902	-0.11492710070727549	0.47586349072843354	-0.013870707138995186	-0.07549904523832053	0.576048678606449	0.03530757519320704	-0.1347720240558227	0.5609547907280044	0.03916562900883369	-0.1255367671850764	0.5401392722865077	0.04384830739141232	-0.11224028087563923	0.5049195971188697	0.040266483160364075	-0.088567910688775	0.5108883856634253	-0.020667965405360533	-0.09771287510894085	0.5241469098332917	-0.00840274749792469	-0.09904552904758443	0.5410373200564467	0.015310844218641373	-0.09770793404402238	0.5139984970911683	0.03743524055086611	-0.06985903710739352	0.5246153044846142	-0.02055922162619983	-0.08721006484235379	0.5365911981028144	-0.007092793417393217	-0.08672707069889674	0.5513848337991392	0.012193574331234136	-0.08130818327165315	0.5238981880999304	0.02796038851161209	-0.0561961799105589	0.5966697356705468	0.030090875985446353	-0.06943294358660225	0.5808926710257054	0.027611157845773282	-0.06327378543468976	0.5611133095150519	0.023210052631879585	-0.0577765906839903	0.5284659740727593	0.00976022115161923	-0.050418807548356474	0.4622830810018609	-0.023011742144276814	-0.051989820119430985
42	1.4333333333333271	0.547178869833526	0.0037169866914541494	-0.10431776767251194	0.5275710199818588	-0.0005065798230186047	-0.11552908829464621	0.4966347264565206	-0.003180530327558051	-0.1133806629146541	0.47704057258528104	-0.013715981935686905	-0.07471590643691371	0.5782170425173657	0.040641885895047025	-0.12696350410492502	0.5623134940139058	0.04425213386468396	-0.11908675004022107	0.540276991747517	0.048221628517528536	-0.10765672322203368	0.5034387575868423	0.04198937795646762	-0.08721804295966218	0.5208376197631857	-0.01956851864777276	-0.09419439588710125	0.5314040531871813	-0.00489099142516447	-0.09515391624950029	0.5431768883606349	0.021694587425958756	-0.09314969591994281	0.5111774775319389	0.04022097037279693	-0.06807064564838275	0.5324462480186724	-0.016996894236585902	-0.08347240530621039	0.5415744385250321	-0.001525187759722213	-0.08195502704968254	0.5521534046002274	0.02009824491770229	-0.07557595070394432	0.5204424010327381	0.0320107752837947	-0.053502783576873165	0.5935261662125588	0.039530683184760385	-0.059318375875004756	0.577476137334756	0.03621837407187056	-0.0543761920093072	0.5576253897412891	0.030595975557196287	-0.050484087961025215	0.5255904859760078	0.014600680072209715	-0.04614831650750765	0.46228308100186094	-0.023011742144277036	-0.051989820119430985
